<svg height="512pt" viewBox="-97 0 512 512" width="512pt" xmlns="http://www.w3.org/2000/svg"><path d="m44.136719 0h229.519531c24.375 0 44.136719 19.761719 44.136719 44.136719v423.726562c0 24.375-19.761719 44.136719-44.136719 44.136719h-229.519531c-24.375 0-44.136719-19.761719-44.136719-44.136719v-423.726562c0-24.375 19.761719-44.136719 44.136719-44.136719zm0 0" fill="#5e5f62"/><path d="m0 70.621094h317.792969v370.757812h-317.792969zm0 0" fill="#90bae1"/><path d="m317.792969 70.621094v170.460937c-177.609375-27.542969-272.507813 36.898438-317.792969 86.863281v-257.324218zm0 0" fill="#b0d3f0"/><path d="m185.378906 485.515625h-52.964844c-4.875 0-8.828124-3.949219-8.828124-8.824219 0-4.878906 3.953124-8.828125 8.828124-8.828125h52.964844c4.875 0 8.828125 3.949219 8.828125 8.828125 0 4.875-3.953125 8.824219-8.828125 8.824219zm0 0" fill="#2c2f38"/><path d="m167.722656 0v26.484375c0 4.875-3.949218 8.824219-8.824218 8.824219-4.878907 0-8.828126-3.949219-8.828126-8.824219v-26.484375zm0 0" fill="#2c2f38"/><g fill="#fff"><path d="m44.136719 247.171875c-3.511719 0-6.691407-2.085937-8.089844-5.308594-1.402344-3.222656-.757813-6.96875 1.636719-9.539062l123.585937-132.414063c2.132813-2.390625 5.390625-3.4375 8.515625-2.742187 3.125.699219 5.625 3.03125 6.539063 6.101562.910156 3.070313.089843 6.390625-2.148438 8.683594l-123.585937 132.414063c-1.664063 1.792968-4.003906 2.8125-6.453125 2.804687zm0 0"/><path d="m52.964844 308.964844c-3.496094 0-6.660156-2.058594-8.074219-5.257813-1.414063-3.195312-.808594-6.925781 1.542969-9.511719l176.550781-194.207031c3.28125-3.605469 8.867187-3.871093 12.472656-.589843 3.609375 3.28125 3.875 8.867187.59375 12.472656l-176.554687 194.207031c-1.671875 1.839844-4.042969 2.886719-6.53125 2.886719zm0 0"/><path d="m141.242188 282.484375c-3.480469 0-6.632813-2.042969-8.054688-5.214844-1.425781-3.175781-.851562-6.886719 1.460938-9.484375l70.621093-79.449218c2.09375-2.355469 5.289063-3.414063 8.378907-2.773438 3.089843.636719 5.601562 2.875 6.59375 5.867188.992187 2.996093.3125 6.292968-1.785157 8.648437l-70.621093 79.449219c-1.675782 1.878906-4.074219 2.957031-6.59375 2.957031zm0 0"/></g></svg>